<?xml version="1.0" encoding="utf-8"?>
<!-- Generator: Adobe Illustrator 21.0.0, SVG Export Plug-In . SVG Version: 6.00 Build 0)  -->
<svg version="1.1" id="Calque_1" xmlns="http://www.w3.org/2000/svg" xmlns:xlink="http://www.w3.org/1999/xlink" x="0px" y="0px"
	 viewBox="0 0 612 792" style="enable-background:new 0 0 612 792;" xml:space="preserve">
<style type="text/css">
	.st0{fill:url(#SVGID_1_);}
	.st1{fill:url(#SVGID_2_);}
	.st00{fill:url(#SVGID_1_);stroke:#000000;stroke-miterlimit:10;}
	.st01{fill:url(#SVGID_2_);stroke:#000000;stroke-miterlimit:10;}
	.st2{fill:url(#SVGID_3_);stroke:#000000;stroke-miterlimit:10;}
	.st3{fill:url(#SVGID_4_);stroke:#000000;stroke-miterlimit:10;}
	.st4{fill:url(#SVGID_5_);stroke:#000000;stroke-miterlimit:10;}
	.st5{fill:url(#SVGID_6_);stroke:#000000;stroke-miterlimit:10;}
	.st6{fill:url(#SVGID_7_);stroke:#000000;stroke-miterlimit:10;}
	.st7{fill:url(#SVGID_8_);stroke:#000000;stroke-miterlimit:10;}
	.st8{fill:url(#SVGID_9_);stroke:#000000;stroke-miterlimit:10;}
	.st9{fill:url(#SVGID_10_);stroke:#000000;stroke-miterlimit:10;}
	.st10{fill:url(#SVGID_11_);stroke:#000000;stroke-miterlimit:10;}
	.st11{fill:url(#SVGID_12_);stroke:#000000;stroke-miterlimit:10;}
	.st12{fill:url(#SVGID_13_);stroke:#000000;stroke-miterlimit:10;}
	.st13{fill:url(#SVGID_14_);stroke:#000000;stroke-miterlimit:10;}
	.st14{fill:url(#SVGID_15_);stroke:#000000;stroke-miterlimit:10;}

	.sa0{fill:url(#SVGID_1_);stroke:#000000;stroke-miterlimit:10;}
	.sa1{fill:url(#SVGID_2_);stroke:#000000;stroke-miterlimit:10;}
	.sa2{fill:url(#SVGID_3_);stroke:#000000;stroke-miterlimit:10;}
	.sa3{fill:url(#SVGID_4_);stroke:#000000;stroke-miterlimit:10;}
	.sa4{fill:url(#SVGID_5_);stroke:#000000;stroke-miterlimit:10;}
</style>
//le décord de base
//le sol
<defs>
<g id="solG">
<linearGradient id="solGrad" gradientUnits="userSpaceOnUse" x1="563.5553" y1="326.4388" x2="22.5555" y2="616.439">
	<stop  offset="0" style="stop-color:#B17F4A">
	<animate attributeName="stop-color" values="brown;#9B870C;orange;red;brown;#4d2600;black;black;black;brown" dur="200s" repeatCount="indefinite"></animate>
	</stop>
	<stop  offset="1" style="stop-color:#F9B233"/>
</linearGradient>
<rect y="293" width="612" height="343" fill="url(#solGrad")/>
</g>
</defs>

//le ciel
<defs>
<g id="cielG">
<linearGradient id="ciel2" gradientUnits="userSpaceOnUse" x1="306.4896" y1="5.9601" x2="305.4898" y2="292.9598">
	<stop  offset="0" style="stop-color:#36A9E1">
	<animate attributeName="stop-color" values="lightblue;blue;orange;red;brown;gray;black;black;black;lightblue" dur="200s" repeatCount="indefinite"></animate>
	</stop>
	<stop  offset="1" style="stop-color:#FFFFFF"/>
</linearGradient>
<rect class="ciel1" width="612" height="293" fill="url(#ciel2)"/>
</g>
</defs>

//La 1er montagne
<defs>
<g id="montagne1" transform="scale(0.4)">
<linearGradient id="SVGID_3_" gradientUnits="userSpaceOnUse" x1="115.6982" y1="192.4733" x2="501.6982" y2="192.4733">
	<stop  offset="0" style="stop-color:#CA9E67"/>
	<stop  offset="1" style="stop-color:#7B6A58"/>
</linearGradient>
<path class="st2" d="M501.7,264c0,6.6-22.4,0-29,0h-286c-2.3,0-6.3,0.8-10.5,1.5c-3.7-0.8-7.2-1.5-9.5-1.5h-26c-6.6,0-25,6.6-25,0
	l13-61c0-6.6,5.4-12,12-12h26c0.2,0,0.5,0,0.7,0l7.3-61c0-6.6,5.4-12,12-12h162c6.6,0,12,5.4,12,12l4.9,41h107.1c6.6,0,12,5.4,12,12
	L501.7,264z"/>
<path class="st4" d="M267.4,245.7l-1.4,17c-4.1-1.2-6.4-2.3-3.4-2.7L267.4,245.7z"/>
<linearGradient id="SVGID_6_" gradientUnits="userSpaceOnUse" x1="388.6982" y1="231.2373" x2="465.6982" y2="231.2373">
	<stop  offset="0" style="stop-color:#CA9E67"/>
	<stop  offset="1" style="stop-color:#7B6A58"/>
</linearGradient>
<polyline class="st5" points="465.7,265.5 393.7,265.5 388.7,248 465.7,197 "/>
<linearGradient id="SVGID_8_" gradientUnits="userSpaceOnUse" x1="176.1582" y1="176.8652" x2="348.6982" y2="176.8652">
	<stop  offset="0" style="stop-color:#CA9E67"/>
	<stop  offset="1" style="stop-color:#7B6A58"/>
</linearGradient>
<path class="st7" d="M176.2,154.3c0-2,0.8-3.8,2.1-5.1c1.3-1.3,3.1-2.1,5.1-2.1c4,0,7.3,3.3,7.3,7.3l8.6,28.1
	c5.2-3,21.7-6.3,24.4-6.3c1.7,0,5.7,2.2,9.2,4.8c3.6,2.6,6.8,5.6,6.8,7.2v12.4l35-44l-4,49.1c5.9-3.6,12.5-7.6,12.7-7.8
	c0.5-0.5,1.1-0.7,1.8-0.7c0.8,0,11.8,5,21.6,9.7l1.9-9.7h20v-31h20"/>
<path class="st8" d="M223.7,264c-1.7,0-5.4-0.2-8.7-0.8c-3.3-0.6-6.3-1.6-6.3-3.2l-0.5-3.5c-10.7,2.2-22.9,3.5-24.8,3.5
	c-4,0-7.3-3.3-7.3-7.3"/>
<linearGradient id="SVGID_10_" gradientUnits="userSpaceOnUse" x1="277.6595" y1="142.3432" x2="310.1709" y2="142.3432">
	<stop  offset="0" style="stop-color:#CA9E67"/>
	<stop  offset="1" style="stop-color:#7B6A58"/>
</linearGradient>
<path class="st9" d="M278.5,147c-3.3,0,4.2-2.7,4.2-6l0,0c0-3.3-3.3-3.3,0-3.3h26c3.3,0,0,0,0,3.3l0,0c0,3.3,3.3,6,0,6"/>
<linearGradient id="SVGID_11_" gradientUnits="userSpaceOnUse" x1="136.2256" y1="236.5" x2="158.6982" y2="236.5">
	<stop  offset="0" style="stop-color:#CA9E67"/>
	<stop  offset="1" style="stop-color:#7B6A58"/>
</linearGradient>
<path class="st10" d="M137.7,248c-3.3,0,0-13.7,0-17l0,0c0-3.3,2.7-6,6-6h9c3.3,0,6,2.7,6,6l0,0c0,3.3-2.7,6-6,6"/>
<linearGradient id="SVGID_12_" gradientUnits="userSpaceOnUse" x1="366.4699" y1="202.7734" x2="388.6982" y2="202.7734">
	<stop  offset="0" style="stop-color:#CA9E67"/>
	<stop  offset="1" style="stop-color:#7B6A58"/>
</linearGradient>
<path class="st11" d="M367.7,211.7c-4.3,0,4-11.7,4-15.9l0,0c0-4.3,12.7,0,17,0"/>
<path class="st12" d="M388.7,195.8L388.7,195.8c0,4.3-2.7,15.9-7,15.9"/>
<linearGradient id="SVGID_14_" gradientUnits="userSpaceOnUse" x1="203.1897" y1="153.5879" x2="260.1953" y2="153.5879">
	<stop  offset="0" style="stop-color:#CA9E67"/>
	<stop  offset="1" style="stop-color:#7B6A58"/>
</linearGradient>
<path class="st13" d="M208.5,172.2c-6.6,0,0-11.5,0-18.2v-1c0-6.6-9.6-18-2.9-18l52.9,12c6.6,0-8-0.6-8,6v17c0,6.6-5.4-4-12-4"/>
</g>
</defs>

//La 2e montagne
<defs>
<g id="montagne2" transform="scale(0.4)">
<linearGradient id="SVGID_1_" gradientUnits="userSpaceOnUse" x1="206" y1="397.7693" x2="408" y2="397.7693">
	<stop  offset="0" style="stop-color:#CA9E67"/>
	<stop  offset="1" style="stop-color:#7B6A58"/>
</linearGradient>
<path class="sa0" d="M408,473c0,6.6-25.4,5-32,5H237c-6.6,0-31,1.6-31-5l19-154c0-6.6,16.3,22,23,22l99-13c6.6,0,41-15.6,41-9
	L408,473z"/>
<linearGradient id="SVGID_2_" gradientUnits="userSpaceOnUse" x1="347" y1="424.0884" x2="397.5" y2="424.0884">
	<stop  offset="0" style="stop-color:#CA9E67"/>
	<stop  offset="1" style="stop-color:#7B6A58"/>
</linearGradient>
<polygon class="sa1" points="397.5,478.2 347,478.2 352,370 "/>
<linearGradient id="SVGID_3_" gradientUnits="userSpaceOnUse" x1="270" y1="406.6992" x2="341.792" y2="406.6992">
	<stop  offset="0" style="stop-color:#CA9E67"/>
	<stop  offset="1" style="stop-color:#7B6A58"/>
</linearGradient>
<polyline class="sa2" points="270,478 272,388 341.8,335.4 "/>
<linearGradient id="SVGID_4_" gradientUnits="userSpaceOnUse" x1="219.2939" y1="459.5" x2="263.8413" y2="459.5">
	<stop  offset="0" style="stop-color:#CA9E67"/>
	<stop  offset="1" style="stop-color:#7B6A58"/>
</linearGradient>
<polyline class="sa3" points="263.8,457.2 248,441 219.3,478 "/>
<linearGradient id="SVGID_5_" gradientUnits="userSpaceOnUse" x1="305.896" y1="406.6992" x2="305.896" y2="406.6992">
	<stop  offset="0" style="stop-color:#CA9E67"/>
	<stop  offset="1" style="stop-color:#7B6A58"/>
</linearGradient>
<path class="sa4" d="M305.9,406.7"/>
</g>
</defs>

//La 3e montagne
<defs>
<g id="montagne3" transform="scale(0.4)">
<linearGradient id="SVGID_1_" gradientUnits="userSpaceOnUse" x1="126" y1="357.7598" x2="530" y2="357.7598">
	<stop  offset="0" style="stop-color:#CA9E67"/>
	<stop  offset="1" style="stop-color:#7B6A58"/>
</linearGradient>
<path fill="url(#SVGID_1_)" stroke="#000000" stroke-miterlimit="10" d="M172,294c0-6.63,5.37-12,12-12h43c6.63,0,12,5.37,12,12v23
	l90.32,3.51C331.31,316.65,335.35,314,340,314h74c5.33,0,9.84,3.47,11.41,8.27l72.2-19.479L530,433.52H126L136,313l36,1.4"/>
<linearGradient id="SVGID_2_" gradientUnits="userSpaceOnUse" x1="180.73" y1="372" x2="229" y2="372">
	<stop  offset="0" style="stop-color:#CA9E67"/>
	<stop  offset="1" style="stop-color:#7B6A58"/>
</linearGradient>
<path fill="url(#SVGID_2_)" stroke="#000000" stroke-miterlimit="10" d="M180.73,401v-46c0-6.627,5.373-12,12-12H217
	c6.627,0,12,5.373,12,12v46"/>
<linearGradient id="SVGID_3_" gradientUnits="userSpaceOnUse" x1="295" y1="375.9375" x2="315.25" y2="375.9375">
	<stop  offset="0" style="stop-color:#CA9E67"/>
	<stop  offset="1" style="stop-color:#7B6A58"/>
</linearGradient>
<path fill="url(#SVGID_3_)" stroke="#000000" stroke-miterlimit="10" d="M295,408.875v-55.75c0-5.592,4.533-10.125,10.125-10.125
	l0,0c5.592,0,10.125,4.533,10.125,10.125"/>
<linearGradient id="SVGID_4_" gradientUnits="userSpaceOnUse" x1="305.125" y1="419" x2="305.125" y2="419">
	<stop  offset="0" style="stop-color:#CA9E67"/>
	<stop  offset="1" style="stop-color:#7B6A58"/>
</linearGradient>
<line fill="url(#SVGID_4_)" stroke="#000000" stroke-miterlimit="10" x1="305.125" y1="419" x2="305.125" y2="419"/>
<linearGradient id="SVGID_5_" gradientUnits="userSpaceOnUse" x1="429" y1="372" x2="480" y2="372">
	<stop  offset="0" style="stop-color:#CA9E67"/>
	<stop  offset="1" style="stop-color:#7B6A58"/>
</linearGradient>
<path fill="url(#SVGID_5_)" stroke="#000000" stroke-miterlimit="10" d="M429,401v-46c0-6.627,5.373-12,12-12h27
	c6.627,0,12,5.373,12,12v46"/>
<linearGradient id="SVGID_6_" gradientUnits="userSpaceOnUse" x1="358" y1="350.3799" x2="404" y2="350.3799">
	<stop  offset="0" style="stop-color:#CA9E67"/>
	<stop  offset="1" style="stop-color:#7B6A58"/>
</linearGradient>
<path fill="url(#SVGID_6_)" stroke="#000000" stroke-miterlimit="10" d="M358,350.38L358,350.38c0-4.076,3.304-7.38,7.38-7.38h31.24
	c4.076,0,7.38,3.304,7.38,7.38l0,0c0,4.076-3.304,7.38-7.38,7.38"/>
</g>
</defs>

//la roche no1
<defs>
<g id="roche1" transform="scale(0.4)">
<linearGradient id="rocheline1" gradientUnits="userSpaceOnUse" x1="135.2021" y1="134.9214" x2="147.2921" y2="58.5881">
	<stop  offset="0.2" style="stop-color:#000000"/>
	<stop  offset="0.2874" style="stop-color:#373736;stop-opacity:0.8815"/>
	<stop  offset="0.3899" style="stop-color:#4A4949;stop-opacity:0.7424"/>
	<stop  offset="0.5024" style="stop-color:#545453;stop-opacity:0.5899"/>
	<stop  offset="0.6424" style="stop-color:#575756;stop-opacity:0.4"/>
	<stop  offset="1" style="stop-color:#3C3C3B;stop-opacity:.8"/>
</linearGradient>
<polygon fill="url(#rocheline1)" stroke="#000000" stroke-miterlimit="10" points="190,76 190,98 159.1,114.717 133.66,117.177 
	112.591,102.709 94,86 125,67 142,53 164.15,50.199 "/>
<linearGradient id="rocheline1" gradientUnits="userSpaceOnUse" x1="136.8809" y1="146.6353" x2="149.3273" y2="68.0512">
	<stop  offset="0.2" style="stop-color:#000000"/>
	<stop  offset="0.2874" style="stop-color:#373736;stop-opacity:0.8815"/>
	<stop  offset="0.3899" style="stop-color:#4A4949;stop-opacity:0.7424"/>
	<stop  offset="0.5024" style="stop-color:#545453;stop-opacity:0.5899"/>
	<stop  offset="0.6424" style="stop-color:#575756;stop-opacity:0.6"/>
	<stop  offset="1" style="stop-color:#3C3C3B;stop-opacity:.8"/>
</linearGradient>
<polygon fill="url(#rocheline1)" stroke="#000000" stroke-miterlimit="10" points="159,93 160.109,104.047 145.827,102.568 154,77 
	118,83.688 143.236,66.304 154,69 165,78 175.937,82.192 "/>
	</g>
	</defs>

//la roche no2
<defs>
<g id="roche2" transform="scale(0.35)">
<linearGradient id="roche2Grad" gradientUnits="userSpaceOnUse" x1="348.6357" y1="182.7573" x2="359.4952" y2="114.193">
	<stop  offset="0.2" style="stop-color:#000000"/>
	<stop  offset="0.2874" style="stop-color:#373736;stop-opacity:0.8815"/>
	<stop  offset="0.3899" style="stop-color:#4A4949;stop-opacity:0.7424"/>
	<stop  offset="0.5024" style="stop-color:#545453;stop-opacity:0.5899"/>
	<stop  offset="0.6424" style="stop-color:#575756;stop-opacity:0.4"/>
	<stop  offset="1" style="stop-color:#3C3C3B;stop-opacity:0"/>
</linearGradient>
<polygon fill="url(#roche2Grad)" stroke="#000000" stroke-miterlimit="10" points="311,117.177 352.987,125 378.334,117.177 
	390.334,132.333 403.733,159.139 383.789,188.325 352.987,183 329,175.667 302.241,151.424 "/>
</g>
</defs>

//la roche no3
<defs>
<g id="roche3" transform="scale(0.3)">
<linearGradient id="roche3Grad" gradientUnits="userSpaceOnUse" x1="111.7129" y1="225.9448" x2="125.326" y2="139.9952">
	<stop  offset="0.2" style="stop-color:#000000"/>
	<stop  offset="0.2874" style="stop-color:#373736;stop-opacity:0.8815"/>
	<stop  offset="0.3899" style="stop-color:#4A4949;stop-opacity:0.7424"/>
	<stop  offset="0.5024" style="stop-color:#545453;stop-opacity:0.5899"/>
	<stop  offset="0.6424" style="stop-color:#575756;stop-opacity:0.4"/>
	<stop  offset="1" style="stop-color:#3C3C3B;stop-opacity:0"/>
</linearGradient>
<polygon fill="url(#roche3Grad)" stroke="#000000" stroke-miterlimit="10" points="169.667,199 147.723,228.624 116.936,226.333 
	78.888,220.746 64.205,186.93 138.333,145 150.104,143.919 150.104,143.919 167.435,162.202 "/>
</g>
</defs>

//la roche no4
<defs>
<g id="roche4" transform="scale(0.2)">
<linearGradient id="roche4Grad" gradientUnits="userSpaceOnUse" x1="253.9102" y1="248.7617" x2="262.9437" y2="191.7261">
	<stop  offset="0.2" style="stop-color:#000000"/>
	<stop  offset="0.2874" style="stop-color:#373736;stop-opacity:0.8815"/>
	<stop  offset="0.3899" style="stop-color:#4A4949;stop-opacity:0.7424"/>
	<stop  offset="0.5024" style="stop-color:#545453;stop-opacity:0.5899"/>
	<stop  offset="0.6424" style="stop-color:#575756;stop-opacity:0.4"/>
	<stop  offset="1" style="stop-color:#3C3C3B;stop-opacity:0"/>
</linearGradient>
<polygon fill="url(#roche4Grad)" stroke="#000000" stroke-miterlimit="10" points="282.333,245 269.667,248.333 247,247.667 
	221.874,241.457 221.845,215.883 238.262,196.274 263.442,191.805 285.604,204.567 294.378,228.589 "/>
</g>
</defs>

//la roche no5
<defs>
<g id="roche5" transform="scale(0.1)">
<svg version="1.1" id="Calque_5" xmlns="http://www.w3.org/2000/svg" xmlns:xlink="http://www.w3.org/1999/xlink" x="0px" y="0px"
	 width="612px" height="792px" viewBox="0 0 612 792" enable-background="new 0 0 612 792" xml:space="preserve">
<linearGradient id="roche5Grad" gradientUnits="userSpaceOnUse" x1="508.874" y1="120.2192" x2="518.3258" y2="60.5432">
	<stop  offset="0.2" style="stop-color:#000000"/>
	<stop  offset="0.2874" style="stop-color:#373736;stop-opacity:0.8815"/>
	<stop  offset="0.3899" style="stop-color:#4A4949;stop-opacity:0.7424"/>
	<stop  offset="0.5024" style="stop-color:#545453;stop-opacity:0.5899"/>
	<stop  offset="0.6424" style="stop-color:#575756;stop-opacity:0.4"/>
	<stop  offset="1" style="stop-color:#3C3C3B;stop-opacity:0"/>
</linearGradient>
<polygon fill="url(#roche5Grad)" stroke="#000000" stroke-miterlimit="10" points="524.999,117.177 504.999,112.333 489.666,117.177 
	477.666,89.734 486.767,62.291 509.666,71 538.241,63.697 540.333,90.333 545.795,114.634 "/>
</g>
</defs>

//la roche no6
<defs>
<g id="roche6" transform="scale(0.4)">
<linearGradient id="roche6Grad" gradientUnits="userSpaceOnUse" x1="481.2441" y1="275.9902" x2="487.3937" y2="237.1632">
	<stop  offset="0.2" style="stop-color:#CA9E67"/>
	<stop  offset="0.2139" style="stop-color:#C59962;stop-opacity:0.9888"/>
	<stop  offset="0.3165" style="stop-color:#A87843;stop-opacity:0.9062"/>
	<stop  offset="0.4239" style="stop-color:#90602D;stop-opacity:0.8198"/>
	<stop  offset="0.5359" style="stop-color:#7E4F20;stop-opacity:0.7296"/>
	<stop  offset="0.6545" style="stop-color:#724417;stop-opacity:0.6342"/>
	<stop  offset="0.7841" style="stop-color:#6B3E12;stop-opacity:0.5299"/>
	<stop  offset="0.9455" style="stop-color:#683C11;stop-opacity:0.4"/>
	<stop  offset="1" style="stop-color:#432918;stop-opacity:0"/>
</linearGradient>
<polygon fill="url(#roche6Grad)" stroke="#000000" stroke-miterlimit="10" points="511.73,265 491.18,277.464 467.425,273.801 
	451.582,255.727 462.999,242.333 470.999,242.868 500.999,242.868 511.73,248.333 519.462,242.242 "/>
</g>
</defs>

//la roche no7
<defs>
<g id="roche7" transform="scale(0.4)">
<linearGradient id="roche7Grad" gradientUnits="userSpaceOnUse" x1="332.0674" y1="308.0088" x2="344.3532" y2="230.4391">
	<stop  offset="0.2" style="stop-color:#CA9E67"/>
	<stop  offset="0.2139" style="stop-color:#C59962;stop-opacity:0.9888"/>
	<stop  offset="0.3165" style="stop-color:#A87843;stop-opacity:0.9062"/>
	<stop  offset="0.4239" style="stop-color:#90602D;stop-opacity:0.8198"/>
	<stop  offset="0.5359" style="stop-color:#7E4F20;stop-opacity:0.7296"/>
	<stop  offset="0.6545" style="stop-color:#724417;stop-opacity:0.6342"/>
	<stop  offset="0.7841" style="stop-color:#6B3E12;stop-opacity:0.5299"/>
	<stop  offset="0.9455" style="stop-color:#683C11;stop-opacity:0.4"/>
	<stop  offset="1" style="stop-color:#432918;stop-opacity:0"/>
</linearGradient>
<polygon fill="url(#roche7Grad)" stroke="#000000" stroke-miterlimit="10" points="371.936,293 349,296.333 314.665,305.252 
	293.783,282.122 322.666,260.333 341.332,244.333 345.332,241.464 369.814,234.472 381.526,263.35 "/>
</g>
</defs>

//la roche no8
<defs>
<g id="roche8" transform="scale(0.4)">
<linearGradient id="roche8Grad" gradientUnits="userSpaceOnUse" x1="73.9629" y1="354.8823" x2="88.9321" y2="260.3705">
	<stop  offset="0.2" style="stop-color:#CA9E67"/>
	<stop  offset="0.2139" style="stop-color:#C59962;stop-opacity:0.9888"/>
	<stop  offset="0.3165" style="stop-color:#A87843;stop-opacity:0.9062"/>
	<stop  offset="0.4239" style="stop-color:#90602D;stop-opacity:0.8198"/>
	<stop  offset="0.5359" style="stop-color:#7E4F20;stop-opacity:0.7296"/>
	<stop  offset="0.6545" style="stop-color:#724417;stop-opacity:0.6342"/>
	<stop  offset="0.7841" style="stop-color:#6B3E12;stop-opacity:0.5299"/>
	<stop  offset="0.9455" style="stop-color:#683C11;stop-opacity:0.4"/>
	<stop  offset="1" style="stop-color:#432918;stop-opacity:0"/>
</linearGradient>
<polygon fill="url(#roche8Grad)" stroke="#000000" stroke-miterlimit="10" points="125,333.667 94,349 61.208,352.862 41,328.333 
	35.666,295.667 55,269.862 85.666,259.853 117.174,267.511 127,298.333 "/>
</g>
</defs>

//le soleil
<defs>
<g id="soleil" transform="scale(0.4)">
<radialGradient id="soleil1Grad" cx="325" cy="435.5332" r="156.8473" gradientUnits="userSpaceOnUse">
	<stop  offset="0" style="stop-color:#EDE421"/>
	<stop  offset="0.0343" style="stop-color:#ECCF1F"/>
	<stop  offset="0.0873" style="stop-color:#EBAE1C"/>
	<stop  offset="0.143" style="stop-color:#E98C1A"/>
	<stop  offset="0.2001" style="stop-color:#E76D18"/>
	<stop  offset="0.2591" style="stop-color:#E55116"/>
	<stop  offset="0.3206" style="stop-color:#E43815"/>
	<stop  offset="0.3857" style="stop-color:#E42414"/>
	<stop  offset="0.4569" style="stop-color:#E31114"/>
	<stop  offset="0.5455" style="stop-color:#E30613"/>
	<stop  offset="0.9376" style="stop-color:#FFED00;stop-opacity:0.44"/>
	<stop  offset="1" style="stop-color:#E50040;stop-opacity:0"/>
</radialGradient>
<polygon fill="url(#soleil1Grad)" stroke="#000000" stroke-miterlimit="10" points="318.212,285.892 330.014,360.688 364.351,293.199 
	352.461,367.982 405.974,314.407 371.557,381.856 439.005,347.439 385.43,400.951 460.213,389.062 392.724,423.398 467.521,435.2 
	392.724,447.001 460.213,481.339 385.43,469.449 439.005,522.962 371.557,488.544 405.974,555.993 352.461,502.418 364.351,577.201 
	330.014,509.712 318.212,584.509 306.411,509.712 272.073,577.201 283.963,502.418 230.451,555.993 264.868,488.544 
	197.419,522.962 250.994,469.449 176.211,481.339 243.7,447.001 168.903,435.2 243.7,423.398 176.211,389.062 250.994,400.951 
	197.419,347.439 264.868,381.856 230.451,314.407 283.963,367.982 272.073,293.199 306.411,360.688 "/>
<radialGradient id="soleil2Grad" cx="318.2119" cy="435.2002" r="75.0264" gradientUnits="userSpaceOnUse">
	<stop  offset="0" style="stop-color:#EDE421"/>
	<stop  offset="0.0343" style="stop-color:#ECCF1F"/>
	<stop  offset="0.0873" style="stop-color:#EBAE1C"/>
	<stop  offset="0.143" style="stop-color:#E98C1A"/>
	<stop  offset="0.2001" style="stop-color:#E76D18"/>
	<stop  offset="0.2591" style="stop-color:#E55116"/>
	<stop  offset="0.3206" style="stop-color:#E43815"/>
	<stop  offset="0.3857" style="stop-color:#E42414"/>
	<stop  offset="0.4569" style="stop-color:#E31114"/>
	<stop  offset="0.5455" style="stop-color:#E30613"/>
	<stop  offset="0.9879" style="stop-color:#FFED00;stop-opacity:0.44"/>
	<stop  offset="1" style="stop-color:#E50040;stop-opacity:0"/>
</radialGradient>
<ellipse fill="url(#soleil2Grad)" cx="318.212" cy="435.2" rx="63" ry="57"/>
	<circle opacity="0.15" fill="url(#soleil3Grad)" cx="318.212" cy="435.2" r="53.852"/>
	<circle fill="url(#soleil5Grad)" cx="318.212" cy="435.2" r="22.438"/>
	<polyline opacity="0.03" fill="none" stroke="#FFFFFF" stroke-width="2" stroke-miterlimit="10" points="318.212,435.2 
		245.009,388.161 318.212,435.2 391.415,482.24 318.212,435.2 365.252,361.998 318.212,435.2 271.172,508.402 318.212,435.2 
		201.401,446.998 318.212,435.2 435.023,423.402 318.212,435.2 306.414,318.389 318.212,435.2 330.01,552.012 318.212,435.2 
		281.146,408.51 318.212,435.2 355.278,461.891 318.212,435.2 344.902,398.134 318.212,435.2 291.521,472.267 318.212,435.2 
		296.916,447.172 318.212,435.2 339.508,423.229 318.212,435.2 306.241,413.904 318.212,435.2 330.184,456.496 318.212,435.2 
		277.16,413.276 318.212,435.2 359.264,457.124 318.212,435.2 340.136,394.148 318.212,435.2 296.288,476.252 318.212,435.2 
		236.508,415.335 318.212,435.2 399.916,455.065 318.212,435.2 338.077,353.496 318.212,435.2 298.347,516.904 318.212,435.2 
		290.024,431.356 318.212,435.2 346.399,439.044 318.212,435.2 322.056,407.013 318.212,435.2 314.368,463.388 318.212,435.2 
		224.257,488.801 318.212,435.2 412.167,381.6 318.212,435.2 264.611,341.245 318.212,435.2 371.813,529.155 318.212,435.2 
		213.88,456.729 318.212,435.2 422.544,413.672 318.212,435.2 296.684,330.868 318.212,435.2 339.74,539.532 318.212,435.2 
		253.361,440.002 318.212,435.2 383.063,430.398 318.212,435.2 313.41,370.35 318.212,435.2 323.014,500.051 318.212,435.2 
		292.34,436.252 318.212,435.2 344.083,434.148 318.212,435.2 317.16,409.328 318.212,435.2 319.264,461.072 318.212,435.2 
		197.988,424.212 318.212,435.2 438.437,446.188 318.212,435.2 329.2,314.976 318.212,435.2 307.224,555.424 318.212,435.2 
		297.858,441.075 318.212,435.2 338.565,429.325 318.212,435.2 312.337,414.847 318.212,435.2 324.087,455.554 318.212,435.2 
		259.164,456.934 318.212,435.2 377.26,413.467 318.212,435.2 296.479,376.152 318.212,435.2 339.944,494.248 318.212,435.2 
		282.308,459.96 318.212,435.2 354.116,410.44 318.212,435.2 293.452,399.297 318.212,435.2 342.972,471.104 	"/>
</g>
</defs>

//la lune
<defs>
<g id="lune" transform="scale(0.6)">
<radialGradient id="Lunegrad" cx="318.2119" cy="435.2002" r="75.0264" gradientUnits="userSpaceOnUse">
	<stop  offset="0" style="stop-color:#fff"/>
	<stop  offset="0.0343" style="stop-color:#fff"/>
	<stop  offset="0.0873" style="stop-color:#ffd"/>
	<stop  offset="0.9879" style="stop-color:#FFE00;stop-opacity:1"/>
	<stop  offset="1" style="stop-color:#fff;stop-opacity:1"/>
</radialGradient>
<circle opacity="1" fill="url(#Lunegrad)" cx="318.212" cy="435.2" r="53.852"/>
</g>
</defs>


//Animation du ciel
  <use xlink:href="#cielG" x="0" y="0"></use>
  //Animation du ciel
  <use xlink:href="#solG" x="0" y="0"></use>

//Animation de la montagne no 1
  <use xlink:href="#montagne1" x="50" y="188" >

      <animate 
    attributeName="x"
    from="600"
    to="-500"
    dur="90s"
	begin="0"
    fill="freeze"
    repeatCount="indefinite"/>
	</use>

//Animation de la montagne no 2
  <use xlink:href="#montagne2" x="50" y="103" >

      <animate 
    attributeName="x"
    from="950"
    to="-1050"
    dur="140s"
	begin="0"
    fill="freeze"
    repeatCount="indefinite"/>
	</use>

	//Animation de la montagne no 3
  <use xlink:href="#montagne3" x="20" y="121" >

      <animate 
    attributeName="x"
    from="1250"
    to="-1750"
    dur="195s"
	begin="0"
    fill="freeze"
    repeatCount="indefinite"/>
	</use>

	//Animation de la roche no 1
  <use xlink:href="#roche1" x="50" y="580" >

      <animate 
    attributeName="x"
    from="580"
    to="-130"
    dur="3.1s"
	begin="0"
    fill="freeze"
    repeatCount="indefinite"/>
	</use>

		//Animation de la roche no 2
  <use xlink:href="#roche2" x="50" y="500" >

      <animate 
    attributeName="x"
    from="770"
    to="-230"
    dur="4.4s"
	begin="0"
    fill="freeze"
    repeatCount="indefinite"/>
	</use>

//Animation de la roche no 3
  <use xlink:href="#roche3" x="50" y="530" >

      <animate 
    attributeName="x"
    from="1000"
    to="-230"
    dur="5.5s"
	begin="0"
    fill="freeze"
    repeatCount="indefinite"/>
	</use>

	//Animation de la roche no 4
  <use xlink:href="#roche4" x="50" y="400" >

      <animate 
    attributeName="x"
    from="700"
    to="-230"
    dur="9.5s"
	begin="0"
    fill="freeze"
    repeatCount="indefinite"/>
	</use>

//Animation de la roche no 5
  <use xlink:href="#roche5" x="50" y="450" >

      <animate 
    attributeName="x"
    from="1200"
    to="-230"
    dur="15.5s"
	begin="0"
    fill="freeze"
    repeatCount="indefinite"/>
	</use>

//Animation de la roche no 6
  <use xlink:href="#roche6" x="50" y="360" >

      <animate 
    attributeName="x"
    from="750"
    to="-500"
    dur="12s"
	begin="0"
    fill="freeze"
    repeatCount="indefinite"/>
	</use>

//Animation de la roche no 2 encore mais dans le fond
  <use xlink:href="#roche2" x="550" y="1660" transform="scale(0.2)">

      <animate 
    attributeName="x"
    from="3550"
    to="-500"
    dur="24s"
	begin="0"
    fill="freeze"
    repeatCount="indefinite"/>
	</use>

//Animation de la roche no 7
  <use xlink:href="#roche7" x="550" y="1660" transform="scale(0.2)">

      <animate 
    attributeName="x"
    from="4500"
    to="-250"
    dur="30s"
	begin="0"
    fill="freeze"
    repeatCount="indefinite"/>
	</use>

//Animation de la roche no 8
  <use xlink:href="#roche8" x="550" y="670" transform="scale(0.4)">

      <animate 
    attributeName="x"
    from="1600"
    to="-250"
    dur="23s"
	begin="0"
    fill="freeze"
    repeatCount="indefinite"/>
	</use>

//Animation du soleil
  <use xlink:href="#soleil" x="550" y="-100">

      <animate 
    attributeName="x"
    from="550"
    to="-920"
    dur="200s"
	begin="0"
    fill="freeze"
    repeatCount="indefinite"/>
	</use>

//Animation de la lune
  <use xlink:href="#lune" x="200" y="-200">

      <animate 
    attributeName="x"
    from="1100"
    to="-300"
    dur="200s"
	begin="0"
    fill="freeze"
    repeatCount="indefinite"/>
	</use>
</svg>

